<?xml version="1.0" standalone="no"?>
<!DOCTYPE svg PUBLIC "-//W3C//DTD SVG 20010904//EN"
 "http://www.w3.org/TR/2001/REC-SVG-20010904/DTD/svg10.dtd">
<svg version="1.0" xmlns="http://www.w3.org/2000/svg"
 width="272.000000pt" height="272.000000pt" viewBox="0 0 272.000000 272.000000"
 preserveAspectRatio="xMidYMid meet">
<metadata>
Created by potrace 1.14, written by Peter Selinger 2001-2017
</metadata>
<g transform="translate(0.000000,272.000000) scale(0.100000,-0.100000)"
fill="#000000" stroke="none">
<path d="M1125 2094 c-92 -13 -168 -26 -232 -40 l-73 -16 0 -117 c0 -65 2
-120 5 -123 3 -3 51 10 106 28 144 48 257 68 384 68 262 0 381 -76 388 -246
l2 -63 -90 -7 c-525 -43 -670 -82 -806 -217 -92 -92 -113 -147 -113 -301 0
-97 4 -124 23 -170 48 -117 148 -211 276 -261 51 -20 78 -23 185 -23 176 0
300 37 439 130 36 24 71 44 78 44 9 0 13 -20 13 -70 l0 -71 123 3 122 3 0 520
c0 558 -2 591 -52 689 -51 101 -165 183 -308 222 -58 16 -395 29 -470 18z
m569 -710 c14 -5 16 -32 16 -200 l0 -193 -44 -31 c-138 -95 -304 -146 -440
-137 -104 7 -169 30 -217 78 -47 47 -63 101 -56 192 6 86 39 137 117 185 94
56 171 72 450 96 85 7 156 14 157 15 1 0 8 -2 17 -5z"/>
</g>
</svg>
